<svg id="Layer_1" enable-background="new 0 0 512 512" height="512" viewBox="0 0 512 512" width="512" xmlns="http://www.w3.org/2000/svg"><g><g><path clip-rule="evenodd" d="m255.985 125.612-221.585 41.874v271.382l221.585 19.625 221.586-19.625v-271.265z" fill="#f37c7c" fill-rule="evenodd"/></g><g><path clip-rule="evenodd" d="m206.021 291.949v146.92h99.959v-146.92c0-2.657-2.19-4.848-4.848-4.848h-90.264c-2.657 0-4.847 2.19-4.847 4.848z" fill="#365e7d" fill-rule="evenodd"/></g><g><path clip-rule="evenodd" d="m28.326 94.975 227.878 38.051 227.878-38.051c-34.079-11.886-59.28-30.984-74.553-57.354-1.635-2.803-3.825-3.738-6.716-3.738h-293.247c-2.862 0-5.081.935-6.687 3.738-15.302 26.37-40.474 45.469-74.553 57.354z" fill="#e29d7b" fill-rule="evenodd"/></g><g><path clip-rule="evenodd" d="m81.357 290.839v106.824c0 2.044 1.665 3.738 3.738 3.738h70.231c2.073 0 3.738-1.694 3.738-3.738v-106.824c0-2.044-1.665-3.738-3.738-3.738h-70.231c-2.074 0-3.738 1.694-3.738 3.738z" fill="#bed8fb" fill-rule="evenodd"/></g><g><path clip-rule="evenodd" d="m430.647 291.366v106.819c0 2.05-1.7 3.74-3.74 3.74h-70.258c-2.05 0-3.739-1.69-3.739-3.74v-106.819c0-2.05 1.689-3.74 3.739-3.74h70.258c2.04 0 3.74 1.69 3.74 3.74z" fill="#bed8fb" fill-rule="evenodd"/></g><g><path clip-rule="evenodd" d="m142.448 290.839v106.824c0 2.044-1.694 3.738-3.738 3.738h16.616c2.073 0 3.738-1.694 3.738-3.738v-106.824c0-2.044-1.665-3.738-3.738-3.738h-16.616c2.044 0 3.738 1.694 3.738 3.738z" fill="#9dc6fb" fill-rule="evenodd"/></g><g><path d="m112.527 401.4c-.021-.175-.031-.35-.031-.525v-38.807c0-4.265 3.461-7.726 7.726-7.726 4.275 0 7.726 3.461 7.726 7.726v38.807c0 .175-.01.35-.031.525z" fill="#f9f6f6"/></g><g><path d="m134.768 369.791h-29.115c-4.268 0-7.726-3.459-7.726-7.726s3.459-7.726 7.726-7.726h29.115c4.268 0 7.726 3.459 7.726 7.726s-3.459 7.726-7.726 7.726z" fill="#e29d7b"/></g><g><path clip-rule="evenodd" d="m274.032 291.949v146.92h31.947v-146.92c0-2.657-2.19-4.848-4.848-4.848h-31.947c2.658 0 4.848 2.19 4.848 4.848z" fill="#2b4d66" fill-rule="evenodd"/></g><g><path d="m305.979 446.595c-4.268 0-7.726-3.459-7.726-7.726v-144.042h-84.505v144.041c0 4.267-3.459 7.726-7.726 7.726-4.268 0-7.726-3.459-7.726-7.726v-146.919c0-6.933 5.641-12.574 12.573-12.574h90.264c6.933 0 12.573 5.641 12.573 12.574v146.919c-.001 4.267-3.46 7.727-7.727 7.727z" fill="#8eaadf"/></g><g><path clip-rule="evenodd" d="m419.751 247.882v39.745h7.155c2.044 0 3.738 1.694 3.738 3.738v106.824c0 2.044-1.694 3.738-3.738 3.738h-7.155v36.942h57.82v-271.266c-6.979 2.249-15.243 3.475-24.997 3.475h-31.743v36.912c11.009 0 19.945 8.936 19.945 19.946 0 11.039-8.936 19.946-19.945 19.946-.35 0-.73 0-1.08 0z" fill="#ee6161" fill-rule="evenodd"/></g><g><path d="m91.169 215.717c-4.268 0-7.726-3.459-7.726-7.726v-36.912c0-4.267 3.459-7.726 7.726-7.726s7.726 3.459 7.726 7.726v36.912c0 4.267-3.458 7.726-7.726 7.726z" fill="#f9f6f6"/></g><g><path d="m173.577 215.717c-4.268 0-7.726-3.459-7.726-7.726v-36.912c0-4.267 3.459-7.726 7.726-7.726s7.726 3.459 7.726 7.726v36.912c.001 4.267-3.458 7.726-7.726 7.726z" fill="#f9f6f6"/></g><g><path d="m255.985 215.717c-4.268 0-7.726-3.459-7.726-7.726v-36.912c0-4.267 3.459-7.726 7.726-7.726 4.268 0 7.726 3.459 7.726 7.726v36.912c0 4.267-3.458 7.726-7.726 7.726z" fill="#f9f6f6"/></g><g><path d="m338.393 215.717c-4.268 0-7.726-3.459-7.726-7.726v-36.912c0-4.267 3.459-7.726 7.726-7.726s7.726 3.459 7.726 7.726v36.912c.001 4.267-3.458 7.726-7.726 7.726z" fill="#f9f6f6"/></g><g><path d="m420.831 215.717c-4.268 0-7.726-3.459-7.726-7.726v-36.912c0-4.267 3.459-7.726 7.726-7.726s7.726 3.459 7.726 7.726v36.912c0 4.267-3.458 7.726-7.726 7.726z" fill="#f9f6f6"/></g><g><path d="m399.504 362.593v38.807c0 .175-.01.35-.031.525h-15.391c-.021-.175-.031-.35-.031-.525v-38.807c0-4.265 3.451-7.726 7.726-7.726 4.266-.001 7.727 3.461 7.727 7.726z" fill="#f9f6f6"/></g><g><path d="m406.318 370.317h-29.086c-4.268 0-7.726-3.459-7.726-7.726s3.459-7.726 7.726-7.726h29.086c4.268 0 7.726 3.459 7.726 7.726s-3.458 7.726-7.726 7.726z" fill="#e29d7b"/></g><g><path clip-rule="evenodd" d="m403.806 73.102h-332.991c-12.09 8.936-26.282 16.208-42.489 21.873h408.216 11.476 36.065c-34.079-11.886-59.28-30.984-74.553-57.354-1.635-2.803-3.825-3.738-6.716-3.738h-27.742c2.482 21.406 28.734 39.219 28.734 39.219z" fill="#ce8b6b" fill-rule="evenodd"/></g><g><path clip-rule="evenodd" d="m5.023 478.117h501.925c2.774 0 5.052-2.249 5.052-5.023v-29.174c0-2.774-2.278-5.052-5.052-5.052h-29.377-171.592-99.959-171.62-29.377c-2.774 0-5.023 2.278-5.023 5.052v29.174c0 2.774 2.249 5.023 5.023 5.023z" fill="#ffd772" fill-rule="evenodd"/></g><g><path clip-rule="evenodd" d="m450.968 443.92v29.174c0 2.774-2.249 5.023-5.023 5.023h61.003c2.774 0 5.052-2.249 5.052-5.023v-29.174c0-2.774-2.278-5.052-5.052-5.052h-29.377-31.567c2.744.059 4.964 2.307 4.964 5.052z" fill="#fbba58" fill-rule="evenodd"/></g><g><path clip-rule="evenodd" d="m71.224 227.936c0 11.039 8.907 19.946 19.945 19.946 11.009 0 19.945-8.907 19.945-19.946 0-11.009-8.936-19.946-19.945-19.946-11.039 0-19.945 8.937-19.945 19.946z" fill="#ffd772" fill-rule="evenodd"/></g><g><path clip-rule="evenodd" d="m173.577 247.882c11.009 0 19.945-8.907 19.945-19.946 0-11.009-8.936-19.946-19.945-19.946s-19.945 8.936-19.945 19.946c0 11.039 8.936 19.946 19.945 19.946z" fill="#ffd772" fill-rule="evenodd"/></g><g><path clip-rule="evenodd" d="m236.04 227.936c0 11.039 8.936 19.946 19.945 19.946s19.945-8.907 19.945-19.946c0-11.009-8.936-19.946-19.945-19.946s-19.945 8.937-19.945 19.946z" fill="#ffd772" fill-rule="evenodd"/></g><g><path clip-rule="evenodd" d="m318.449 227.936c0 11.039 8.936 19.946 19.945 19.946 11.038 0 19.945-8.907 19.945-19.946 0-11.009-8.907-19.946-19.945-19.946-11.01 0-19.945 8.937-19.945 19.946z" fill="#ffd772" fill-rule="evenodd"/></g><g><path clip-rule="evenodd" d="m400.886 227.936c0 11.039 8.907 19.946 19.945 19.946 11.009 0 19.945-8.907 19.945-19.946 0-11.009-8.936-19.946-19.945-19.946-11.038 0-19.945 8.937-19.945 19.946z" fill="#ffd772" fill-rule="evenodd"/></g><g><path clip-rule="evenodd" d="m.438 101.225c-.642 31.86 6.629 57.208 33.962 66.261 7.067 2.336 15.477 3.592 25.406 3.592h31.363 82.408 82.408 82.408 82.437 31.743c9.754 0 18.018-1.227 24.997-3.475 27.684-8.936 35.042-34.343 34.371-66.378-.117-5.665-.496-6.249-6.249-6.249h-21.61-47.541-408.215-21.61c-5.782-.001-6.161.583-6.278 6.249z" fill="#ffd772" fill-rule="evenodd"/></g><g><path clip-rule="evenodd" d="m464.43 101.225c.672 32.036-6.687 57.442-34.371 66.378-6.979 2.249-15.244 3.475-24.997 3.475h15.769 31.743c9.754 0 18.018-1.227 24.997-3.475 27.684-8.936 35.042-34.343 34.371-66.378-.117-5.665-.496-6.249-6.249-6.249h-21.61-25.931c5.781-.001 6.161.583 6.278 6.249z" fill="#fbba58" fill-rule="evenodd"/></g><g><path clip-rule="evenodd" d="m413.998 291.365v106.824c0 2.044-1.694 3.738-3.738 3.738h16.645c2.044 0 3.738-1.694 3.738-3.738v-106.824c0-2.044-1.694-3.738-3.738-3.738h-16.645c2.044 0 3.738 1.693 3.738 3.738z" fill="#9dc6fb" fill-rule="evenodd"/></g></g></svg>